<?xml version="1.0" encoding="iso-8859-1"?>
<!-- Uploaded to: SVG Repo, www.svgrepo.com, Generator: SVG Repo Mixer Tools -->
<!DOCTYPE svg PUBLIC "-//W3C//DTD SVG 1.1//EN" "http://www.w3.org/Graphics/SVG/1.1/DTD/svg11.dtd">
<svg fill="#000000" version="1.1" id="Capa_1" xmlns="http://www.w3.org/2000/svg" xmlns:xlink="http://www.w3.org/1999/xlink" 
	 width="800px" height="800px" viewBox="0 0 30.583 30.583"
	 xml:space="preserve">
<g>
	<g>
		<path d="M22.831,6.902c0-1.479-1.204-2.684-2.684-2.684c-1.479,0-2.683,1.204-2.683,2.684s1.204,2.683,2.683,2.683
			C21.627,9.585,22.831,8.381,22.831,6.902z M20.147,7.584c-0.377,0-0.684-0.307-0.684-0.683c0-0.377,0.307-0.684,0.684-0.684
			c0.375,0,0.683,0.307,0.683,0.684C20.831,7.277,20.524,7.584,20.147,7.584z"/>
		<path d="M17.578,30.583c0.552,0,1-0.447,1-1V10.888c0-0.393-0.229-0.748-0.586-0.91L15.068,8.65
			c-0.256-0.117-0.535-0.114-0.778-0.019V0.5c0-0.276-0.224-0.5-0.5-0.5H3.423c-0.276,0-0.5,0.224-0.5,0.5v21.396
			c0,0.276,0.224,0.5,0.5,0.5h10.366c0.276,0,0.5-0.224,0.5-0.5V10.492l2.288,1.04v18.051
			C16.578,30.136,17.024,30.583,17.578,30.583z M7.734,19.551c0-0.472,0.381-0.852,0.852-0.852s0.852,0.38,0.852,0.852
			c0,0.471-0.381,0.852-0.852,0.852S7.734,20.021,7.734,19.551z M3.923,16.938V3.048h9.366v13.89H3.923z"/>
		<path d="M18.926,10.8v5.493c0,0.553,0.448,1,1,1s1-0.447,1-1V10.8c0-0.553-0.448-1-1-1S18.926,10.247,18.926,10.8z"/>
		<path d="M22.362,30.583c0.552,0,1-0.447,1-1v-9.884c0.119-0.049,0.23-0.121,0.328-0.219l3.677-3.677
			c0.391-0.391,0.391-1.023,0-1.414l-4.298-4.297C22.978,10,22.867,9.927,22.744,9.876c-0.244-0.102-0.521-0.102-0.765,0
			s-0.438,0.296-0.541,0.541c-0.051,0.122-0.076,0.252-0.076,0.382v18.783C21.362,30.136,21.81,30.583,22.362,30.583z M23.362,16.98
			v-3.767l1.883,1.884L23.362,16.98z"/>
	</g>
</g>
</svg>