<svg width="70" height="70" viewBox="0 0 70 70" fill="none" xmlns="http://www.w3.org/2000/svg">
<rect width="70" height="70" rx="10" fill="#723D46"/>
<path d="M27.5 31.6667H25.8333V33.3334H27.5V31.6667Z" fill="white"/>
<path d="M27.5 35H25.8333V36.6667H27.5V35Z" fill="white"/>
<path d="M25.8334 20.8333H27.5C29.8334 20.8333 31.6667 19 31.6667 16.6667V14.1667C31.6667 11.8333 29.8334 10 27.5 10H25.8334C23.5 10 21.6667 11.8333 21.6667 14.1667V16.6667C21.6667 19 23.5 20.8333 25.8334 20.8333ZM23.3334 14.1667C23.3334 12.75 24.4167 11.6667 25.8334 11.6667H27.5C28.9167 11.6667 30 12.75 30 14.1667V16.6667C30 18.0833 28.9167 19.1667 27.5 19.1667H25.8334C24.4167 19.1667 23.3334 18.0833 23.3334 16.6667V14.1667Z" fill="white"/>
<path d="M59.1667 38.3334H36.6667V27.5001C36.6667 24.2501 34.0833 21.6667 30.8333 21.6667H22.5C19.25 21.6667 16.6667 24.2501 16.6667 27.5001V38.3334H10.8333C10.3333 38.3334 10 38.6667 10 39.1667V44.1667C10 44.6667 10.3333 45.0001 10.8333 45.0001H13.3333V60.0001H15V45.0001H51.6667V43.3334H14.1667H11.6667V40.0001H58.3333V43.3334H55.8333C55.3333 43.3334 55 43.6667 55 44.1667V60.0001H56.6667V45.0001H59.1667C59.6667 45.0001 60 44.6667 60 44.1667V39.1667C60 38.6667 59.6667 38.3334 59.1667 38.3334ZM28.0833 23.3334L26.75 26.8334L25.4167 23.3334H28.0833ZM18.3333 27.5001C18.3333 25.1667 20.1667 23.3334 22.5 23.3334H23.5833L25.9167 29.5001C26 29.7501 26.3333 30.0001 26.6667 30.0001C27 30.0001 27.3333 29.7501 27.5833 29.5001L29.9167 23.3334H30.8333C33.1667 23.3334 35 25.1667 35 27.5001V38.3334H32.5V30.0001H30.8333V38.3334H22.5V30.0001H20.8333V38.3334H18.3333V27.5001Z" fill="white"/>
<path d="M59.1666 12.5H39.1666C38.6666 12.5 38.3333 12.8333 38.3333 13.3333V25C38.3333 25.5 38.6666 25.8333 39.1666 25.8333H43.3333V29.1667C43.3333 29.5 43.5 29.8333 43.8333 29.9167C43.9166 30 44.0833 30 44.1666 30C44.4166 30 44.5833 29.9167 44.75 29.75L48.6666 25.8333H59.1666C59.6666 25.8333 60 25.5 60 25V13.3333C60 12.8333 59.6666 12.5 59.1666 12.5ZM58.3333 24.1667H48.3333C48.0833 24.1667 47.9166 24.25 47.75 24.4167L45 27.1667V25C45 24.5 44.6666 24.1667 44.1666 24.1667H40V14.1667H58.3333V24.1667Z" fill="white"/>
<path d="M47.5 16.6667H42.5V18.3334H47.5V16.6667Z" fill="white"/>
<path d="M54.1667 16.6667H49.1667V18.3334H54.1667V16.6667Z" fill="white"/>
<path d="M55.8333 20H42.5V21.6667H55.8333V20Z" fill="white"/>
<path d="M39.1667 49.1667H30.8333C30.3333 49.1667 30 49.5001 30 50.0001V55.0001C30 55.5001 30.3333 55.8334 30.8333 55.8334H39.1667C39.6667 55.8334 40 55.5001 40 55.0001V50.0001C40 49.5001 39.6667 49.1667 39.1667 49.1667ZM38.3333 54.1667H31.6667V50.8334H38.3333V54.1667Z" fill="white"/>
<path d="M45 50H43.3333V51.6667H45V50Z" fill="white"/>
<path d="M48.3334 50H46.6667V51.6667H48.3334V50Z" fill="white"/>
<path d="M51.6667 50H50V51.6667H51.6667V50Z" fill="white"/>
<path d="M45 53.3333H43.3333V54.9999H45V53.3333Z" fill="white"/>
<path d="M48.3334 53.3333H46.6667V54.9999H48.3334V53.3333Z" fill="white"/>
<path d="M51.6667 53.3333H50V54.9999H51.6667V53.3333Z" fill="white"/>
<path d="M20 50H18.3333V51.6667H20V50Z" fill="white"/>
<path d="M23.3334 50H21.6667V51.6667H23.3334V50Z" fill="white"/>
<path d="M26.6667 50H25V51.6667H26.6667V50Z" fill="white"/>
<path d="M20 53.3333H18.3333V54.9999H20V53.3333Z" fill="white"/>
<path d="M23.3334 53.3333H21.6667V54.9999H23.3334V53.3333Z" fill="white"/>
<path d="M26.6667 53.3333H25V54.9999H26.6667V53.3333Z" fill="white"/>
</svg>
