<svg width="70" height="70" viewBox="0 0 70 70" fill="none" xmlns="http://www.w3.org/2000/svg">
<rect width="70" height="70" rx="10" fill="#723D46"/>
<path d="M42.7394 19.2754H23.2397C21.9884 19.2754 20.9707 20.2932 20.9707 21.5442V24.0162C20.9707 25.2673 21.9885 26.2852 23.2397 26.2852H42.7394C43.9904 26.2852 45.0082 25.2672 45.0082 24.0162V21.5442C45.0082 20.2931 43.9904 19.2754 42.7394 19.2754ZM43.1236 24.0162C43.1236 24.2281 42.9511 24.4005 42.7394 24.4005H23.2397C23.0278 24.4005 22.8553 24.2281 22.8553 24.0162V21.5442C22.8553 21.3323 23.0278 21.16 23.2397 21.16H42.7394C42.951 21.16 43.1236 21.3323 43.1236 21.5442V24.0162Z" fill="white"/>
<path d="M32.9895 29.2358C26.7723 29.2358 21.7145 34.2935 21.7145 40.5107C21.7145 46.7276 26.7723 51.7854 32.9895 51.7854C39.2065 51.7854 44.2644 46.7276 44.2644 40.5107C44.2644 34.2935 39.2065 29.2358 32.9895 29.2358ZM28.948 32.036C28.4904 32.7248 27.9902 33.5727 27.535 34.5517H25.7376C26.607 33.4958 27.702 32.6326 28.948 32.036ZM23.6464 39.5684C23.7578 38.4562 24.0637 37.4005 24.53 36.4364H26.7893C26.7738 36.4838 26.7578 36.5303 26.7424 36.5781C26.4577 37.4728 26.2263 38.4793 26.1177 39.5684M24.5301 44.5849C24.0637 43.6205 23.758 42.5649 23.6465 41.4529H26.063C26.1051 42.4542 26.2649 43.5039 26.5865 44.5849H24.5301ZM25.7378 46.4695H27.3059C27.6772 47.2613 28.1442 48.0637 28.7208 48.87C27.569 48.2797 26.5533 47.4604 25.7378 46.4695ZM32.0471 49.8534C32.0226 49.851 31.9985 49.8476 31.974 49.8449C31.9372 49.7828 31.8935 49.7236 31.8413 49.6694C30.843 48.6358 30.0358 47.5683 29.4187 46.4694H32.0471V49.8534ZM32.0471 44.5849H28.5587C28.1968 43.5646 27.9905 42.52 27.9394 41.4529H32.0471V44.5849ZM32.0471 39.5684H28.0086C28.101 38.7927 28.2699 38.0064 28.5195 37.2099C28.6026 36.9452 28.6928 36.6877 28.7874 36.4364H32.0471V39.5684ZM32.0471 34.5517H29.6427C30.6858 32.5939 31.8256 31.3688 31.8482 31.3449C31.8976 31.2925 31.9392 31.2357 31.9745 31.1761C31.999 31.1734 32.0228 31.1702 32.0473 31.1677V34.5517H32.0471ZM40.2411 34.5517H38.4437C37.9886 33.5725 37.4882 32.7248 37.0305 32.036C38.2768 32.6325 39.3719 33.4958 40.2411 34.5517ZM33.9318 31.1679C33.956 31.1703 33.9801 31.1735 34.0043 31.1762C34.0399 31.2361 34.0816 31.2932 34.1316 31.3458C34.1473 31.3625 35.2905 32.5816 36.3381 34.5519H33.9318V31.1679ZM33.9318 36.4364H37.1918C37.279 36.6685 37.3628 36.9059 37.4403 37.1496C37.7004 37.9668 37.8762 38.7732 37.9708 39.5684H33.9318V36.4364ZM33.9318 41.453H38.0395C37.9885 42.5201 37.7821 43.5646 37.4202 44.585H33.9318V41.453ZM34.1373 49.6695C34.085 49.7236 34.0414 49.783 34.0049 49.845C33.9804 49.8477 33.9563 49.8511 33.9318 49.8535V46.4697H36.5599C35.9428 47.5683 35.1359 48.6358 34.1373 49.6695ZM38.673 46.4695H40.241C39.4251 47.4603 38.4095 48.2796 37.2579 48.8701M41.4488 44.5849H39.3925C39.7139 43.504 39.8739 42.4542 39.916 41.4529H42.3326C42.221 42.5651 41.9151 43.6205 41.4488 44.5849ZM42.3324 39.5684H39.8607C39.7521 38.4793 39.5208 37.4729 39.2362 36.5781C39.221 36.5305 39.2047 36.4838 39.1891 36.4364H41.4487C41.9151 37.4005 42.221 38.4562 42.3324 39.5684Z" fill="white"/>
<path d="M51.4273 15.2732C51.4278 15.3035 51.4281 15.3369 51.4284 15.3692C51.428 15.3369 51.4277 15.3035 51.4273 15.2732Z" fill="white"/>
<path d="M51.4387 16.8132C51.439 16.8801 51.4393 16.9487 51.4398 17.0181C51.4393 16.9487 51.439 16.88 51.4387 16.8132Z" fill="white"/>
<path d="M51.4448 18.4563C51.4448 18.4933 51.4451 18.5307 51.4451 18.5682C51.4451 18.5306 51.4448 18.4935 51.4448 18.4563Z" fill="white"/>
<path d="M51.4438 18.0769C51.4438 18.133 51.4441 18.1898 51.4444 18.2472C51.4441 18.1898 51.4438 18.1332 51.4438 18.0769Z" fill="white"/>
<path d="M51.4328 15.8262C51.4331 15.8841 51.4336 15.9445 51.4341 16.0062C51.4335 15.9446 51.4331 15.8839 51.4328 15.8262Z" fill="white"/>
<path d="M51.4456 18.8159C51.4459 18.8656 51.4459 18.9151 51.4462 18.9655C51.4459 18.9153 51.4459 18.8655 51.4456 18.8159Z" fill="white"/>
<path d="M53.3098 15.096C53.283 13.2379 52.6979 11.8493 51.5711 10.969C49.8476 9.62287 47.4994 10.0465 47.1282 10.1245L18.8278 14.2339C17.6251 14.289 16.6628 15.2816 16.6628 16.4975V57.7311C16.6628 58.9822 17.681 60.0001 18.9321 60.0001H47.0469C48.2981 60.0001 49.3158 58.9822 49.3158 57.7311V57.2193H50.9386C50.9408 57.2193 50.9428 57.2193 50.945 57.2193C51.1282 57.2193 51.8652 57.1781 52.4957 56.5575C53.0373 56.0247 53.3119 55.2547 53.3119 54.269C53.3119 52.6657 53.3158 49.5878 53.3204 45.8258C53.334 34.8251 53.3545 18.2007 53.3098 15.096ZM47.4313 57.7311C47.4313 57.943 47.2589 58.1154 47.047 58.1154H18.9322C18.7201 58.1154 18.5476 57.9431 18.5476 57.7311V16.4975C18.5476 16.2856 18.7201 16.1133 18.9322 16.1133H47.047C47.2589 16.1133 47.4313 16.2857 47.4313 16.4975V57.7311ZM51.4273 54.269C51.4273 54.9191 51.2458 55.3069 50.9291 55.3346H49.3161V16.4975C49.3161 15.2464 48.2984 14.2285 47.0471 14.2285H42.1767H31.9792L47.4316 11.9847C47.4558 11.9812 47.4837 11.9758 47.5074 11.9705C47.5253 11.9664 49.2999 11.579 50.4179 12.4597C51.0684 12.9721 51.4074 13.8681 51.4254 15.123C51.4259 15.17 51.4268 15.2202 51.4273 15.2733C51.4278 15.3036 51.4281 15.337 51.4284 15.3693C51.4286 15.3935 51.4289 15.4164 51.4292 15.4417C51.4297 15.4784 51.43 15.5182 51.4305 15.5572C51.4308 15.5812 51.4311 15.6039 51.4311 15.6285C51.4316 15.6731 51.4319 15.7203 51.4324 15.7675C51.4324 15.7738 51.4324 15.78 51.4324 15.7866C51.4327 15.8 51.4327 15.8127 51.4329 15.8262C51.4332 15.8839 51.4338 15.9446 51.4343 16.0061C51.4343 16.0201 51.4346 16.0335 51.4346 16.0477C51.4348 16.1013 51.4354 16.1573 51.4356 16.2137C51.4359 16.2397 51.4359 16.2651 51.4362 16.2918C51.4364 16.3514 51.437 16.4134 51.4373 16.476C51.4375 16.4975 51.4375 16.5185 51.4378 16.5404C51.4381 16.602 51.4383 16.6655 51.4386 16.7296C51.4389 16.7573 51.4389 16.7848 51.4391 16.813C51.4394 16.8798 51.4397 16.9485 51.4402 17.0179C51.4402 17.0444 51.4402 17.0708 51.4405 17.0976C51.4408 17.1633 51.441 17.2303 51.4413 17.2983C51.4416 17.336 51.4416 17.3738 51.4418 17.4123C51.4421 17.4736 51.4424 17.5361 51.4424 17.5991C51.4426 17.6439 51.4429 17.6889 51.4429 17.7345C51.4432 17.7926 51.4434 17.8515 51.4437 17.9111C51.4437 17.9658 51.444 18.021 51.4443 18.0768C51.4443 18.133 51.4445 18.1898 51.4448 18.2471C51.4448 18.3162 51.4451 18.3856 51.4453 18.4563C51.4453 18.4935 51.4456 18.5306 51.4456 18.5682C51.4459 18.6496 51.4461 18.7324 51.4461 18.8159C51.4464 18.8654 51.4464 18.9152 51.4467 18.9654C51.4467 19.0342 51.4469 19.1041 51.4472 19.1743C51.4472 19.2269 51.4472 19.2792 51.4475 19.3325C51.4478 19.4369 51.448 19.5424 51.448 19.6494C51.448 19.6623 51.448 19.675 51.4483 19.688C51.4604 26.1818 51.4464 37.5818 51.4362 45.8234C51.4312 49.5864 51.4273 52.6652 51.4273 54.269Z" fill="white"/>
</svg>
