<svg width="314" height="50" viewBox="0 0 314 50" fill="none" xmlns="http://www.w3.org/2000/svg">
<path d="M48.9635 32.3047C39.4314 24.5076 26.6813 21.7489 14.3981 26.5241C24.3656 18.9342 38.3707 20.7345 49.9989 26.2088C49.898 28.3279 49.5501 30.3763 48.9635 32.3047Z" fill="white"/>
<path d="M25.0296 50C11.2283 50 0 38.7853 0 25.0002C0 11.2154 11.2283 0 25.0296 0C36.9907 0 47.2367 8.42896 49.5561 20.1043C46.5112 18.8013 43.4911 17.824 40.5719 17.1975C37.5908 11.2805 31.6453 7.60945 25.0296 7.60945C15.4286 7.60945 7.61845 15.4106 7.61845 25.0002C7.61845 34.5894 15.4286 42.3905 25.0296 42.3905C30.7605 42.3905 36.3171 39.6477 39.8505 34.1022C32.7264 30.0032 24.6652 27.8442 16.7012 29.8C27.77 25.1435 39.4042 28.1257 47.9699 35.0002C43.9862 44.1176 35.0003 50 25.0296 50Z" fill="white"/>
<path d="M35.1754 25.2429C35.7996 24.1994 36.3906 23.1336 36.9562 22.016C28.9045 20.6439 20.815 21.6382 14.3981 26.5241C21.4002 23.802 28.5528 23.5312 35.1754 25.2429Z" fill="white"/>
<path d="M16.7012 29.8C21.7179 28.5681 26.7732 28.9697 31.6077 30.4596C32.2097 29.6868 32.7887 28.8965 33.3441 28.0905C27.9604 27.0506 22.2598 27.4617 16.7012 29.8Z" fill="white"/>
<path d="M9.97003 44.9551C13.1424 44.0762 16.1714 42.9124 19.0801 41.3441C12.4003 38.9109 7.61845 32.5033 7.61845 25.0002C7.61845 15.4106 15.4286 7.60945 25.0296 7.60945C30.9934 7.60945 36.4112 10.5934 39.6051 15.5156C40.5709 12.3858 41.1171 9.14587 41.1105 5.84708C36.7336 2.17776 31.1044 0 25.0296 0C11.2283 0 0 11.2154 0 25.0002C0.000169239 33.1426 3.91873 40.388 9.97003 44.9551Z" fill="white"/>
<path d="M87.3157 23.9485C87.3157 24.1465 87.3157 24.4859 87.3157 24.9667C87.3157 25.4192 87.2449 25.9707 87.1033 26.6212C85.8857 26.9606 85.107 27.3141 84.7672 27.6818C84.4274 28.0212 84.2575 28.5303 84.2575 29.2091V37.8636H80.6047L79.7128 36.7182C77.6457 37.8495 75.4795 38.4151 73.2142 38.4151C69.4481 38.4151 66.2484 37.1424 63.615 34.597C61.0099 32.0232 59.7073 28.5727 59.7073 24.2455C59.7073 19.8899 61.2081 16.3828 64.2096 13.7242C67.2111 11.0374 70.7507 9.69394 74.8282 9.69394C78.2545 9.69394 81.5533 10.1889 84.7248 11.1788C84.5832 13.6111 84.2434 16.2131 83.7054 18.9848C83.5638 18.9848 83.3231 18.9848 82.9833 18.9848C82.6718 18.9848 82.1904 18.9707 81.5392 18.9424C81.1427 17.1606 80.364 15.7747 79.2031 14.7848C78.0421 13.7949 76.5697 13.3 74.7857 13.3C72.4638 13.3 70.5808 14.2192 69.1366 16.0576C67.6925 17.896 66.9704 20.5828 66.9704 24.1182C66.9704 27.6535 67.65 30.3263 69.0092 32.1364C70.3684 33.9465 72.2514 34.8515 74.6583 34.8515C75.9325 34.8515 77.1785 34.5687 78.3961 34.003V27.0879C77.4616 26.7768 76.2157 26.6212 74.6583 26.6212C74.6583 25.5465 74.715 24.6556 74.8282 23.9485H87.3157Z" fill="white"/>
<path d="M99.4567 35.2333H105.531C106.408 35.2333 107.074 34.9929 107.527 34.5121C108.008 34.003 108.291 33.5364 108.376 33.1121C108.49 32.6596 108.575 32.0515 108.631 31.2879C108.716 30.5242 108.773 30.0576 108.801 29.8879C109.396 29.8879 110.203 29.9303 111.222 30.0152C111.42 32.2778 111.519 34.0172 111.519 35.2333C111.519 36.4495 111.505 37.3263 111.477 37.8636H89.7726C89.7726 37.6374 89.7726 37.3121 89.7726 36.8879C89.7726 36.4354 89.8434 35.9545 89.9849 35.4455C90.8628 35.304 91.5282 35.0636 91.9812 34.7242C92.4343 34.3566 92.6608 33.7485 92.6608 32.9V13.1303C92.0096 12.8192 91.0185 12.6636 89.6876 12.6636C89.6593 12.4657 89.6451 12.1828 89.6451 11.8151C89.6451 11.4475 89.7159 10.9384 89.8575 10.2879H102.345C102.373 10.5141 102.387 10.8253 102.387 11.2212C102.387 11.6172 102.303 12.098 102.133 12.6636C101.255 12.805 100.589 13.0596 100.136 13.4273C99.6833 13.7667 99.4567 14.3606 99.4567 15.2091V35.2333Z" fill="white"/>
<path d="M130.983 15.1667C130.105 13.3283 128.845 12.4091 127.203 12.4091C125.56 12.4091 124.371 13.3 123.635 15.0818C122.927 16.8636 122.573 19.7343 122.573 23.6939C122.573 28.1343 122.984 31.2596 123.805 33.0697C124.654 34.8515 125.9 35.7424 127.543 35.7424C129.185 35.7424 130.388 34.8798 131.153 33.1545C131.917 31.4293 132.3 28.5586 132.3 24.5424C132.3 20.1303 131.861 17.005 130.983 15.1667ZM136.76 34.5121C134.324 37.1424 131.195 38.4576 127.373 38.4576C123.55 38.4576 120.435 37.1566 118.028 34.5545C115.621 31.9242 114.418 28.4596 114.418 24.1606C114.418 19.8616 115.621 16.3828 118.028 13.7242C120.435 11.0374 123.55 9.69394 127.373 9.69394C131.195 9.69394 134.324 11.0374 136.76 13.7242C139.223 16.3828 140.455 19.8616 140.455 24.1606C140.455 28.4313 139.223 31.8818 136.76 34.5121Z" fill="white"/>
<path d="M154.043 35.1909H155.869C159.635 35.1909 161.518 33.5364 161.518 30.2273C161.518 26.8899 159.635 25.2212 155.869 25.2212H154.043V35.1909ZM154.043 22.5485H157.016C158.007 22.1242 158.814 21.4879 159.437 20.6394C160.089 19.7626 160.414 18.6879 160.414 17.4151C160.414 16.1141 159.975 15.0394 159.097 14.1909C158.22 13.3424 157.045 12.9182 155.572 12.9182H154.043V22.5485ZM155.572 10.2879C159.621 10.2879 162.595 10.9808 164.492 12.3667C166.417 13.7242 167.38 15.5202 167.38 17.7545C167.38 20.3283 166.12 22.2091 163.6 23.397C166.828 24.5566 168.442 26.8333 168.442 30.2273C168.442 32.6879 167.408 34.5828 165.341 35.9121C163.274 37.2131 160.216 37.8636 156.167 37.8636H144.359C144.359 37.6374 144.359 37.3121 144.359 36.8879C144.359 36.4354 144.43 35.9545 144.571 35.4455C145.449 35.304 146.114 35.0636 146.568 34.7242C147.021 34.3566 147.247 33.7485 147.247 32.9V13.1303C146.511 12.8192 145.52 12.6636 144.274 12.6636C144.246 12.4657 144.231 12.1828 144.231 11.8151C144.231 11.4475 144.302 10.9384 144.444 10.2879H155.572Z" fill="white"/>
<path d="M191.129 31.6273L191.341 29.5909V29.4636C191.653 29.4354 192.092 29.4212 192.658 29.4212C193.224 29.4212 193.776 29.4919 194.314 29.6333C194.456 31.5 194.527 33.1263 194.527 34.5121C194.527 35.898 194.513 37.0152 194.484 37.8636H172.355C172.355 37.6657 172.355 37.3404 172.355 36.8879C172.355 36.4354 172.44 35.9545 172.61 35.4455C173.488 35.304 174.153 35.0636 174.606 34.7242C175.059 34.3566 175.286 33.7485 175.286 32.9V13.1303C174.578 12.8192 173.573 12.6636 172.27 12.6636C172.27 12.4939 172.27 12.2111 172.27 11.8151C172.27 11.3909 172.341 10.8818 172.483 10.2879H194.187C194.187 10.8818 194.187 11.9 194.187 13.3424C194.187 14.7566 194.102 16.3687 193.932 18.1788C193.253 18.2354 192.304 18.2636 191.086 18.2636C190.888 16.1707 190.662 14.8697 190.407 14.3606C189.982 13.399 189.104 12.9182 187.773 12.9182H182.082V22.7182L187.688 22.1242H189.557V25.8576H187.688L182.082 25.4758V35.1909H187.816C188.864 35.1909 189.656 34.8798 190.194 34.2576C190.421 34.003 190.619 33.5929 190.789 33.0273C190.959 32.4333 191.072 31.9667 191.129 31.6273Z" fill="white"/>
<path d="M207.509 35.2333H213.583C214.461 35.2333 215.126 34.9929 215.579 34.5121C216.061 34.003 216.344 33.5364 216.429 33.1121C216.542 32.6596 216.627 32.0515 216.684 31.2879C216.769 30.5242 216.825 30.0576 216.854 29.8879C217.448 29.8879 218.255 29.9303 219.275 30.0152C219.473 32.2778 219.572 34.0172 219.572 35.2333C219.572 36.4495 219.558 37.3263 219.53 37.8636H197.825C197.825 37.6374 197.825 37.3121 197.825 36.8879C197.825 36.4354 197.896 35.9545 198.038 35.4455C198.915 35.304 199.581 35.0636 200.034 34.7242C200.487 34.3566 200.713 33.7485 200.713 32.9V13.1303C200.062 12.8192 199.071 12.6636 197.74 12.6636C197.712 12.4657 197.698 12.1828 197.698 11.8151C197.698 11.4475 197.769 10.9384 197.91 10.2879H210.398C210.426 10.5141 210.44 10.8253 210.44 11.2212C210.44 11.6172 210.355 12.098 210.185 12.6636C209.307 12.805 208.642 13.0596 208.189 13.4273C207.736 13.7667 207.509 14.3606 207.509 15.2091V35.2333Z" fill="white"/>
<path d="M228.077 37.2697C227.681 37.6657 227.199 37.8636 226.633 37.8636C226.067 37.8636 225.585 37.6657 225.189 37.2697C224.793 36.8455 224.594 36.3505 224.594 35.7848C224.594 35.1909 224.793 34.696 225.189 34.3C225.585 33.904 226.067 33.7061 226.633 33.7061C227.199 33.7061 227.681 33.904 228.077 34.3C228.502 34.696 228.714 35.1909 228.714 35.7848C228.714 36.3505 228.502 36.8455 228.077 37.2697Z" fill="white"/>
<path d="M232.962 13.003C232.878 12.6071 232.835 12.3242 232.835 12.1545C232.835 11.9848 232.849 11.8576 232.878 11.7727H241.075C241.16 12.1687 241.202 12.5788 241.202 13.003C240.07 13.1162 239.39 13.2717 239.164 13.4697C238.965 13.6394 238.866 13.8515 238.866 14.1061C238.866 14.3606 238.937 14.6859 239.079 15.0818L244.983 30.7788C245.351 31.7687 245.62 32.6455 245.79 33.4091H245.917L253.18 13.6394C252.246 13.2434 251.283 13.0313 250.292 13.003C250.292 12.5222 250.334 12.1121 250.419 11.7727H257.513C257.456 12.2818 257.385 12.6919 257.3 13.003C256.507 13.1162 255.884 13.3141 255.431 13.597C254.978 13.8798 254.61 14.3889 254.327 15.1242L245.79 37.9485H244.643L235.256 13.5121C234.35 13.201 233.585 13.0313 232.962 13.003Z" fill="white"/>
<path d="M265.027 14.9545V35.8273C265.848 36.195 266.797 36.4071 267.873 36.4636C267.873 36.5202 267.873 36.6475 267.873 36.8455C267.873 37.0152 267.83 37.298 267.745 37.6939H259.166C259.109 37.2414 259.151 36.8313 259.293 36.4636C260.312 36.3222 261.006 36.1242 261.374 35.8697C261.771 35.5869 261.969 35.1061 261.969 34.4273V13.6394C261.091 13.2717 260.114 13.0455 259.038 12.9606C259.038 12.4232 259.081 12.0273 259.166 11.7727H267.788C267.788 12.3384 267.745 12.7343 267.66 12.9606C266.698 13.0737 266.018 13.2717 265.622 13.5545C265.225 13.8374 265.027 14.304 265.027 14.9545Z" fill="white"/>
<path d="M287.64 30.8212C287.64 32.999 286.819 34.7525 285.176 36.0818C283.562 37.4111 281.524 38.0758 279.06 38.0758C276.597 38.0758 274.176 37.4818 271.797 36.2939C271.769 35.8414 271.755 35.0919 271.755 34.0455C271.755 32.999 271.882 31.6697 272.137 30.0576C272.448 30.0576 272.816 30.1 273.241 30.1848C273.241 30.2697 273.241 30.3545 273.241 30.4394C273.241 34.4273 275.252 36.4212 279.273 36.4212C280.858 36.4212 282.161 35.9828 283.18 35.1061C284.2 34.201 284.709 33.098 284.709 31.797C284.709 30.4677 284.27 29.3505 283.393 28.4455C282.543 27.5121 281.509 26.7485 280.292 26.1545C279.074 25.5323 277.857 24.9101 276.639 24.2879C275.421 23.6374 274.374 22.7747 273.496 21.7C272.647 20.597 272.222 19.296 272.222 17.797C272.222 15.8172 272.958 14.2475 274.43 13.0879C275.931 11.9283 277.8 11.3485 280.037 11.3485C282.274 11.3485 284.511 11.7727 286.748 12.6212C286.691 14.601 286.536 16.2697 286.281 17.6273C285.828 17.6273 285.516 17.599 285.346 17.5424C284.78 14.5162 282.939 13.003 279.825 13.003C278.324 13.003 277.135 13.3848 276.257 14.1485C275.407 14.8838 274.983 15.8737 274.983 17.1182C274.983 18.3626 275.407 19.4091 276.257 20.2576C277.135 21.1061 278.197 21.8273 279.442 22.4212C280.688 22.9869 281.934 23.5949 283.18 24.2455C284.426 24.8677 285.474 25.7303 286.323 26.8333C287.201 27.9364 287.64 29.2657 287.64 30.8212Z" fill="white"/>
<path d="M296.883 27.4273H305.208L300.96 14.403L300.536 16.2273L296.883 27.4273ZM304.698 37.6939C304.698 37.2131 304.755 36.803 304.868 36.4636C306.142 36.2657 307.133 35.9545 307.841 35.5303L305.675 28.9545H296.416L294.164 35.7848C295.042 36.1808 296.104 36.4071 297.35 36.4636C297.35 36.7747 297.293 37.1848 297.18 37.6939H289.365C289.365 37.3263 289.421 36.9162 289.535 36.4636C290.469 36.3222 291.177 36.0677 291.658 35.7C292.14 35.304 292.494 34.7808 292.72 34.1303L300.281 11.603C300.96 11.3485 301.881 11.2212 303.042 11.2212L310.517 34.0879C310.772 34.9081 311.168 35.502 311.706 35.8697C312.244 36.2091 313.009 36.4071 314 36.4636C313.943 37.0293 313.873 37.4394 313.788 37.6939H304.698Z" fill="white"/>
</svg>
