<svg width="228" height="100" viewBox="0 0 228 100" fill="none" xmlns="http://www.w3.org/2000/svg">
<path d="M139.068 35.0985C128.709 26.6271 114.852 23.6298 101.503 28.818C112.335 20.5717 127.556 22.5277 140.193 28.4754C140.084 30.7778 139.706 33.0033 139.068 35.0985Z" fill="white"/>
<path d="M113.057 54.3242C98.0578 54.3242 85.855 42.1396 85.855 27.1623C85.855 12.1853 98.0578 0 113.057 0C126.056 0 137.192 9.15793 139.712 21.843C136.403 20.4274 133.121 19.3655 129.948 18.6848C126.708 12.2561 120.247 8.26755 113.057 8.26755C102.623 8.26755 94.1346 16.7434 94.1346 27.1623C94.1346 37.5808 102.623 46.0567 113.057 46.0567C119.285 46.0567 125.324 43.0766 129.164 37.0515C121.422 32.598 112.661 30.2523 104.006 32.3773C116.035 27.318 128.679 30.5581 137.988 38.0271C133.659 47.9331 123.893 54.3242 113.057 54.3242Z" fill="white"/>
<path d="M124.083 27.426C124.762 26.2923 125.404 25.1343 126.019 23.92C117.268 22.4292 108.477 23.5095 101.503 28.818C109.113 25.8605 116.886 25.5663 124.083 27.426Z" fill="white"/>
<path d="M104.006 32.3773C109.458 31.0388 114.952 31.4751 120.206 33.0939C120.86 32.2542 121.489 31.3956 122.093 30.5199C116.242 29.39 110.047 29.8367 104.006 32.3773Z" fill="white"/>
<path d="M96.6903 48.8429C100.138 47.8881 103.43 46.6236 106.591 44.9196C99.3315 42.2761 94.1346 35.3143 94.1346 27.1623C94.1346 16.7434 102.623 8.26755 113.057 8.26755C119.538 8.26755 125.426 11.5095 128.898 16.8574C129.947 13.457 130.541 9.93681 130.534 6.35273C125.777 2.36606 119.659 0 113.057 0C98.0578 0 85.855 12.1853 85.855 27.1623C85.8551 36.0089 90.1138 43.8809 96.6903 48.8429Z" fill="white"/>
<path d="M24.7538 86.9948C24.7538 87.1722 24.7538 87.4765 24.7538 87.9074C24.7538 88.3131 24.6903 88.8074 24.5634 89.3905C23.4717 89.6947 22.7735 90.0116 22.4688 90.3412C22.1642 90.6454 22.0118 91.1017 22.0118 91.7101V99.4676H18.7367L17.937 98.4409C16.0836 99.455 14.1414 99.962 12.1103 99.962C8.73365 99.962 5.86475 98.8212 3.50361 96.5396C1.16787 94.2326 0 91.1397 0 87.261C0 83.3569 1.34559 80.2133 4.03677 77.8303C6.72796 75.4219 9.90152 74.2177 13.5575 74.2177C16.6295 74.2177 19.5872 74.6614 22.4307 75.5487C22.3038 77.7289 21.9991 80.0612 21.5168 82.5456C21.3898 82.5456 21.174 82.5456 20.8694 82.5456C20.5901 82.5456 20.1585 82.533 19.5745 82.5076C19.2191 80.9105 18.5209 79.6683 17.48 78.781C16.4391 77.8937 15.1189 77.45 13.5194 77.45C11.4375 77.45 9.74919 78.2739 8.45437 79.9218C7.15956 81.5696 6.51215 83.978 6.51215 87.1469C6.51215 90.3158 7.12148 92.7115 8.34013 94.334C9.55877 95.9565 11.2471 96.7677 13.4051 96.7677C14.5476 96.7677 15.6647 96.5142 16.7564 96.0072V89.8088C15.9186 89.5299 14.8015 89.3905 13.4051 89.3905C13.4051 88.4271 13.4559 87.6286 13.5575 86.9948H24.7538Z" fill="white"/>
<path d="M35.6395 97.11H41.0854C41.8724 97.11 42.469 96.8945 42.8752 96.4635C43.3068 96.0072 43.5607 95.5889 43.6369 95.2086C43.7384 94.803 43.8146 94.2579 43.8654 93.5735C43.9416 92.889 43.9923 92.4707 44.0177 92.3186C44.5509 92.3186 45.2745 92.3566 46.1884 92.4326C46.3662 94.4607 46.455 96.0199 46.455 97.11C46.455 98.2001 46.4423 98.986 46.4169 99.4676H26.9566C26.9566 99.2648 26.9566 98.9733 26.9566 98.593C26.9566 98.1874 27.0201 97.7564 27.1471 97.3001C27.9341 97.1733 28.5307 96.9579 28.9369 96.6536C29.3432 96.3241 29.5463 95.779 29.5463 95.0185V77.2979C28.9623 77.0191 28.0737 76.8796 26.8805 76.8796C26.8551 76.7022 26.8424 76.4487 26.8424 76.1191C26.8424 75.7895 26.9059 75.3332 27.0328 74.7501H38.2291C38.2545 74.9529 38.2672 75.2318 38.2672 75.5867C38.2672 75.9416 38.1911 76.3726 38.0387 76.8796C37.2517 77.0064 36.6551 77.2345 36.2488 77.5641C35.8426 77.8683 35.6395 78.4007 35.6395 79.1612V97.11Z" fill="white"/>
<path d="M63.9061 79.1232C63.1191 77.4754 61.9893 76.6515 60.5168 76.6515C59.0442 76.6515 57.9779 77.45 57.3178 79.0472C56.6831 80.6443 56.3658 83.2174 56.3658 86.7666C56.3658 90.7468 56.7339 93.5481 57.4702 95.1706C58.2318 96.7677 59.3489 97.5663 60.8214 97.5663C62.294 97.5663 63.373 96.7931 64.0585 95.2466C64.744 93.7002 65.0867 91.1271 65.0867 87.5272C65.0867 83.5724 64.6932 80.771 63.9061 79.1232ZM69.0854 96.4635C66.902 98.8212 64.0966 100 60.6691 100C57.2417 100 54.4489 98.8338 52.2909 96.5015C50.1329 94.1439 49.0539 91.0383 49.0539 87.1849C49.0539 83.3315 50.1329 80.2133 52.2909 77.8303C54.4489 75.4219 57.2417 74.2177 60.6691 74.2177C64.0966 74.2177 66.902 75.4219 69.0854 77.8303C71.2942 80.2133 72.3986 83.3315 72.3986 87.1849C72.3986 91.013 71.2942 94.1058 69.0854 96.4635Z" fill="white"/>
<path d="M84.5818 97.0719H86.2194C89.596 97.0719 91.2844 95.5889 91.2844 92.6228C91.2844 89.6313 89.596 88.1356 86.2194 88.1356H84.5818V97.0719ZM84.5818 85.7399H87.2476C88.1362 85.3596 88.8598 84.7892 89.4183 84.0287C90.0023 83.2428 90.2942 82.2794 90.2942 81.1386C90.2942 79.9725 89.9007 79.0091 89.1137 78.2486C88.3266 77.4881 87.273 77.1078 85.9528 77.1078H84.5818V85.7399ZM85.9528 74.7501C89.5833 74.7501 92.2491 75.3712 93.9502 76.6134C95.6766 77.8303 96.5398 79.4401 96.5398 81.4429C96.5398 83.7498 95.41 85.4357 93.1504 86.5004C96.0447 87.5398 97.4919 89.5806 97.4919 92.6228C97.4919 94.8283 96.5652 96.5269 94.7118 97.7184C92.8585 98.8846 90.1165 99.4676 86.486 99.4676H75.8989C75.8989 99.2648 75.8989 98.9733 75.8989 98.593C75.8989 98.1874 75.9624 97.7564 76.0894 97.3001C76.8764 97.1733 77.473 96.9579 77.8792 96.6536C78.2855 96.3241 78.4886 95.779 78.4886 95.0185V77.2979C77.8285 77.0191 76.9399 76.8796 75.8228 76.8796C75.7974 76.7022 75.7847 76.4487 75.7847 76.1191C75.7847 75.7895 75.8482 75.3332 75.9751 74.7501H85.9528Z" fill="white"/>
<path d="M117.833 93.8777L118.024 92.0524V91.9383C118.303 91.9129 118.696 91.9003 119.204 91.9003C119.712 91.9003 120.207 91.9636 120.689 92.0904C120.816 93.7636 120.88 95.2213 120.88 96.4635C120.88 97.7057 120.867 98.7071 120.842 99.4676H101.001C101.001 99.2902 101.001 98.9986 101.001 98.593C101.001 98.1874 101.077 97.7564 101.229 97.3001C102.016 97.1733 102.613 96.9579 103.019 96.6536C103.425 96.3241 103.628 95.779 103.628 95.0185V77.2979C102.994 77.0191 102.092 76.8796 100.924 76.8796C100.924 76.7275 100.924 76.474 100.924 76.1191C100.924 75.7388 100.988 75.2825 101.115 74.7501H120.575C120.575 75.2825 120.575 76.1951 120.575 77.4881C120.575 78.7556 120.499 80.2006 120.347 81.8231C119.737 81.8738 118.887 81.8992 117.795 81.8992C117.617 80.0232 117.414 78.857 117.186 78.4007C116.805 77.5388 116.018 77.1078 114.825 77.1078H109.721V85.892L114.748 85.3596H116.424V88.706H114.748L109.721 88.3638V97.0719H114.863C115.802 97.0719 116.513 96.7931 116.995 96.2353C117.198 96.0072 117.376 95.6396 117.528 95.1326C117.681 94.6002 117.782 94.1819 117.833 93.8777Z" fill="white"/>
<path d="M132.52 97.11H137.966C138.753 97.11 139.349 96.8945 139.756 96.4635C140.187 96.0072 140.441 95.5889 140.517 95.2086C140.619 94.803 140.695 94.2579 140.746 93.5735C140.822 92.889 140.873 92.4707 140.898 92.3186C141.431 92.3186 142.155 92.3566 143.069 92.4326C143.247 94.4607 143.335 96.0199 143.335 97.11C143.335 98.2001 143.323 98.986 143.297 99.4676H123.837C123.837 99.2648 123.837 98.9733 123.837 98.593C123.837 98.1874 123.901 97.7564 124.028 97.3001C124.815 97.1733 125.411 96.9579 125.817 96.6536C126.224 96.3241 126.427 95.779 126.427 95.0185V77.2979C125.843 77.0191 124.954 76.8796 123.761 76.8796C123.736 76.7022 123.723 76.4487 123.723 76.1191C123.723 75.7895 123.786 75.3332 123.913 74.7501H135.11C135.135 74.9529 135.148 75.2318 135.148 75.5867C135.148 75.9416 135.072 76.3726 134.919 76.8796C134.132 77.0064 133.536 77.2345 133.129 77.5641C132.723 77.8683 132.52 78.4007 132.52 79.1612V97.11Z" fill="white"/>
<path d="M150.961 98.9353C150.606 99.2902 150.174 99.4676 149.666 99.4676C149.159 99.4676 148.727 99.2902 148.372 98.9353C148.016 98.555 147.838 98.1113 147.838 97.6043C147.838 97.0719 148.016 96.6283 148.372 96.2734C148.727 95.9184 149.159 95.741 149.666 95.741C150.174 95.741 150.606 95.9184 150.961 96.2734C151.342 96.6283 151.532 97.0719 151.532 97.6043C151.532 98.1113 151.342 98.555 150.961 98.9353Z" fill="white"/>
<path d="M155.341 77.1838C155.265 76.8289 155.227 76.5754 155.227 76.4233C155.227 76.2712 155.24 76.1571 155.265 76.0811H162.615C162.691 76.436 162.729 76.8036 162.729 77.1838C161.714 77.2852 161.105 77.4247 160.901 77.6021C160.724 77.7542 160.635 77.9444 160.635 78.1725C160.635 78.4007 160.698 78.6922 160.825 79.0472L166.119 93.1171C166.449 94.0044 166.69 94.7903 166.842 95.4748H166.957L173.469 77.7542C172.631 77.3993 171.768 77.2092 170.879 77.1838C170.879 76.7529 170.917 76.3853 170.993 76.0811H177.353C177.302 76.5374 177.239 76.905 177.163 77.1838C176.452 77.2852 175.893 77.4627 175.487 77.7162C175.081 77.9697 174.751 78.426 174.497 79.0852L166.842 99.5437H165.814L157.398 77.6402C156.585 77.3613 155.9 77.2092 155.341 77.1838Z" fill="white"/>
<path d="M184.091 78.9331V97.6423C184.827 97.9719 185.677 98.162 186.642 98.2127C186.642 98.2635 186.642 98.3775 186.642 98.555C186.642 98.7071 186.604 98.9606 186.528 99.3155H178.835C178.784 98.9099 178.822 98.5423 178.949 98.2127C179.863 98.086 180.485 97.9085 180.815 97.6804C181.171 97.4268 181.349 96.9959 181.349 96.3875V77.7542C180.562 77.4247 179.686 77.2219 178.721 77.1458C178.721 76.6641 178.759 76.3092 178.835 76.0811H186.566C186.566 76.5881 186.528 76.943 186.452 77.1458C185.589 77.2472 184.979 77.4247 184.624 77.6782C184.268 77.9317 184.091 78.35 184.091 78.9331Z" fill="white"/>
<path d="M204.365 93.1552C204.365 95.1072 203.629 96.679 202.157 97.8705C200.71 99.062 198.882 99.6578 196.673 99.6578C194.464 99.6578 192.293 99.1254 190.161 98.0606C190.135 97.655 190.123 96.9832 190.123 96.0452C190.123 95.1072 190.237 93.9157 190.465 92.4707C190.745 92.4707 191.075 92.5087 191.455 92.5847C191.455 92.6608 191.455 92.7369 191.455 92.8129C191.455 96.3874 193.258 98.1747 196.863 98.1747C198.285 98.1747 199.453 97.7818 200.367 96.9959C201.281 96.1846 201.738 95.1959 201.738 94.0298C201.738 92.8383 201.344 91.8369 200.557 91.0257C199.796 90.1891 198.869 89.5046 197.777 88.9722C196.685 88.4145 195.594 87.8567 194.502 87.299C193.41 86.7159 192.471 85.9427 191.684 84.9794C190.922 83.9907 190.541 82.8245 190.541 81.4809C190.541 79.7063 191.202 78.2993 192.522 77.2599C193.867 76.2205 195.543 75.7008 197.549 75.7008C199.554 75.7008 201.56 76.0811 203.566 76.8416C203.515 78.6162 203.375 80.1119 203.147 81.3288C202.741 81.3288 202.461 81.3034 202.309 81.2527C201.801 78.5401 200.151 77.1838 197.358 77.1838C196.013 77.1838 194.946 77.5261 194.159 78.2106C193.398 78.8697 193.017 79.757 193.017 80.8725C193.017 81.9879 193.398 82.9259 194.159 83.6864C194.946 84.447 195.898 85.0934 197.016 85.6258C198.133 86.1329 199.25 86.6779 200.367 87.261C201.484 87.8187 202.423 88.5919 203.185 89.5806C203.972 90.5693 204.365 91.7608 204.365 93.1552Z" fill="white"/>
<path d="M212.653 90.113H220.117L216.309 78.4387L215.928 80.0739L212.653 90.113ZM219.66 99.3155C219.66 98.8846 219.711 98.517 219.812 98.2127C220.955 98.0353 221.843 97.7564 222.478 97.3761L220.536 91.482H212.234L210.215 97.6043C211.002 97.9592 211.954 98.162 213.072 98.2127C213.072 98.4916 213.021 98.8592 212.919 99.3155H205.912C205.912 98.986 205.963 98.6184 206.064 98.2127C206.902 98.086 207.537 97.8578 207.968 97.5283C208.4 97.1733 208.717 96.7043 208.921 96.1213L215.699 75.9289C216.309 75.7008 217.134 75.5867 218.175 75.5867L224.877 96.0832C225.106 96.8184 225.461 97.3508 225.944 97.6804C226.426 97.9846 227.111 98.162 228 98.2127C227.949 98.7198 227.886 99.0874 227.81 99.3155H219.66Z" fill="white"/>
</svg>
