<svg width="251" height="40" viewBox="0 0 251 40" fill="none" xmlns="http://www.w3.org/2000/svg">
<path d="M39.1245 25.8437C31.5079 19.6061 21.3198 17.3991 11.5049 21.2192C19.4695 15.1474 30.6603 16.5876 39.9519 20.967C39.8713 22.6623 39.5932 24.301 39.1245 25.8437Z" fill="url(#paint0_linear_132_9605)"/>
<path d="M20 40C8.97204 40 0 31.0282 0 20.0001C0 8.97231 8.97204 0 20 0C29.5576 0 37.7447 6.74316 39.5981 16.0834C37.165 15.0411 34.7518 14.2592 32.4192 13.758C30.0371 9.02438 25.2863 6.08756 20 6.08756C12.3283 6.08756 6.08756 12.3285 6.08756 20.0001C6.08756 27.6715 12.3283 33.9124 20 33.9124C24.5793 33.9124 29.0194 31.7182 31.8427 27.2818C26.1502 24.0026 19.7088 22.2754 13.3451 23.84C22.1898 20.1148 31.4861 22.5006 38.3306 28.0001C35.1474 35.2941 27.9671 40 20 40Z" fill="url(#paint1_linear_132_9605)"/>
<path d="M28.1071 20.1943C28.6058 19.3595 29.0781 18.5069 29.53 17.6128C23.0962 16.5151 16.6323 17.3105 11.5049 21.2192C17.1 19.0416 22.8152 18.825 28.1071 20.1943Z" fill="url(#paint2_linear_132_9605)"/>
<path d="M13.3451 23.84C17.3538 22.8545 21.3933 23.1758 25.2563 24.3677C25.7373 23.7494 26.1999 23.1172 26.6438 22.4724C22.3419 21.6405 17.7868 21.9694 13.3451 23.84Z" fill="url(#paint3_linear_132_9605)"/>
<path d="M7.9666 35.9641C10.5015 35.261 12.9219 34.3299 15.2461 33.0752C9.90851 31.1287 6.08756 26.0026 6.08756 20.0001C6.08756 12.3285 12.3283 6.08756 20 6.08756C24.7654 6.08756 29.0946 8.47468 31.6466 12.4125C32.4184 9.90867 32.8548 7.3167 32.8495 4.67767C29.3522 1.7422 24.8541 0 20 0C8.97204 0 0 8.97231 0 20.0001C0.000135231 26.5141 3.13128 32.3104 7.9666 35.9641Z" fill="url(#paint4_linear_132_9605)"/>
<path d="M69.77 19.1588C69.77 19.3172 69.77 19.5887 69.77 19.9733C69.77 20.3354 69.7135 20.7766 69.6003 21.297C68.6274 21.5685 68.0052 21.8513 67.7337 22.1455C67.4622 22.417 67.3264 22.8242 67.3264 23.3673V30.2909H64.4076L63.6949 29.3745C62.0432 30.2796 60.3123 30.7321 58.5022 30.7321C55.4929 30.7321 52.9361 29.7139 50.8319 27.6776C48.7502 25.6186 47.7094 22.8582 47.7094 19.3964C47.7094 15.9119 48.9086 13.1063 51.307 10.9794C53.7054 8.8299 56.5337 7.75515 59.7919 7.75515C62.5296 7.75515 65.1656 8.15111 67.6997 8.94303C67.5866 10.8889 67.3151 12.9705 66.8852 15.1879C66.7721 15.1879 66.5797 15.1879 66.3082 15.1879C66.0593 15.1879 65.6747 15.1766 65.1543 15.1539C64.8375 13.7285 64.2153 12.6198 63.2876 11.8279C62.3599 11.036 61.1834 10.64 59.7579 10.64C57.9026 10.64 56.3979 11.3754 55.244 12.8461C54.09 14.3168 53.5131 16.4663 53.5131 19.2945C53.5131 22.1228 54.0561 24.261 55.1422 25.7091C56.2282 27.1572 57.7329 27.8812 59.6561 27.8812C60.6743 27.8812 61.6698 27.6549 62.6428 27.2024V21.6703C61.8961 21.4214 60.9005 21.297 59.6561 21.297C59.6561 20.4372 59.7013 19.7244 59.7919 19.1588H69.77Z" fill="#C04B62"/>
<path d="M79.4714 28.1867H84.3247C85.0261 28.1867 85.5579 27.9943 85.9199 27.6097C86.3045 27.2024 86.5308 26.8291 86.5987 26.4897C86.6892 26.1277 86.7571 25.6412 86.8023 25.0303C86.8702 24.4194 86.9154 24.0461 86.9381 23.9103C87.4132 23.9103 88.0581 23.9442 88.8726 24.0121C89.031 25.8222 89.1102 27.2137 89.1102 28.1867C89.1102 29.1596 89.0989 29.861 89.0762 30.2909H71.7332C71.7332 30.1099 71.7332 29.8497 71.7332 29.5103C71.7332 29.1483 71.7898 28.7636 71.9029 28.3564C72.6043 28.2432 73.136 28.0509 73.4981 27.7794C73.8601 27.4853 74.0411 26.9988 74.0411 26.32V10.5042C73.5207 10.2554 72.7288 10.1309 71.6653 10.1309C71.6427 9.97252 71.6314 9.74626 71.6314 9.45212C71.6314 9.15798 71.688 8.75071 71.8011 8.2303H81.7793C81.8019 8.41131 81.8132 8.6602 81.8132 8.97697C81.8132 9.29374 81.7453 9.67838 81.6096 10.1309C80.9082 10.244 80.3764 10.4477 80.0144 10.7418C79.6524 11.0133 79.4714 11.4885 79.4714 12.1673V28.1867Z" fill="#C04B62"/>
<path d="M104.663 12.1333C103.961 10.6626 102.954 9.92727 101.642 9.92727C100.33 9.92727 99.3794 10.64 98.7911 12.0655C98.2255 13.4909 97.9426 15.7875 97.9426 18.9552C97.9426 22.5075 98.2707 25.0077 98.9269 26.4558C99.6057 27.8812 100.601 28.5939 101.914 28.5939C103.226 28.5939 104.187 27.9038 104.798 26.5236C105.409 25.1434 105.715 22.8469 105.715 19.6339C105.715 16.1042 105.364 13.604 104.663 12.1333ZM109.278 27.6097C107.333 29.7139 104.832 30.7661 101.778 30.7661C98.7233 30.7661 96.2344 29.7253 94.3111 27.6436C92.3879 25.5394 91.4263 22.7677 91.4263 19.3285C91.4263 15.8893 92.3879 13.1063 94.3111 10.9794C96.2344 8.8299 98.7233 7.75515 101.778 7.75515C104.832 7.75515 107.333 8.8299 109.278 10.9794C111.247 13.1063 112.231 15.8893 112.231 19.3285C112.231 22.7451 111.247 25.5055 109.278 27.6097Z" fill="#C04B62"/>
<path d="M123.089 28.1527H124.548C127.558 28.1527 129.062 26.8291 129.062 24.1818C129.062 21.5119 127.558 20.177 124.548 20.177H123.089V28.1527ZM123.089 18.0388H125.465C126.257 17.6994 126.901 17.1903 127.399 16.5115C127.92 15.8101 128.18 14.9503 128.18 13.9321C128.18 12.8913 127.829 12.0315 127.128 11.3527C126.426 10.6739 125.487 10.3345 124.311 10.3345H123.089V18.0388ZM124.311 8.2303C127.546 8.2303 129.922 8.78465 131.438 9.89333C132.976 10.9794 133.746 12.4162 133.746 14.2036C133.746 16.2626 132.739 17.7673 130.725 18.7176C133.305 19.6453 134.594 21.4667 134.594 24.1818C134.594 26.1503 133.768 27.6663 132.117 28.7297C130.465 29.7705 128.021 30.2909 124.786 30.2909H115.351C115.351 30.1099 115.351 29.8497 115.351 29.5103C115.351 29.1483 115.407 28.7636 115.52 28.3564C116.222 28.2432 116.753 28.0509 117.115 27.7794C117.478 27.4853 117.659 26.9988 117.659 26.32V10.5042C117.07 10.2554 116.278 10.1309 115.283 10.1309C115.26 9.97252 115.249 9.74626 115.249 9.45212C115.249 9.15798 115.305 8.75071 115.419 8.2303H124.311Z" fill="#C04B62"/>
<path d="M152.722 25.3018L152.892 23.6727V23.5709C153.141 23.5483 153.492 23.537 153.944 23.537C154.397 23.537 154.838 23.5935 155.268 23.7067C155.381 25.2 155.438 26.501 155.438 27.6097C155.438 28.7184 155.426 29.6121 155.404 30.2909H137.721C137.721 30.1325 137.721 29.8723 137.721 29.5103C137.721 29.1483 137.789 28.7636 137.925 28.3564C138.626 28.2432 139.158 28.0509 139.52 27.7794C139.882 27.4853 140.063 26.9988 140.063 26.32V10.5042C139.497 10.2554 138.694 10.1309 137.653 10.1309C137.653 9.99515 137.653 9.76889 137.653 9.45212C137.653 9.11273 137.71 8.70545 137.823 8.2303H155.166C155.166 8.70545 155.166 9.52 155.166 10.6739C155.166 11.8053 155.098 13.0949 154.962 14.543C154.419 14.5883 153.661 14.6109 152.688 14.6109C152.53 12.9366 152.349 11.8958 152.145 11.4885C151.806 10.7192 151.105 10.3345 150.041 10.3345H145.493V18.1745L149.973 17.6994H151.467V20.6861H149.973L145.493 20.3806V28.1527H150.075C150.912 28.1527 151.546 27.9038 151.976 27.4061C152.157 27.2024 152.315 26.8743 152.451 26.4218C152.587 25.9467 152.677 25.5733 152.722 25.3018Z" fill="#C04B62"/>
<path d="M165.811 28.1867H170.665C171.366 28.1867 171.898 27.9943 172.26 27.6097C172.644 27.2024 172.871 26.8291 172.939 26.4897C173.029 26.1277 173.097 25.6412 173.142 25.0303C173.21 24.4194 173.255 24.0461 173.278 23.9103C173.753 23.9103 174.398 23.9442 175.213 24.0121C175.371 25.8222 175.45 27.2137 175.45 28.1867C175.45 29.1596 175.439 29.861 175.416 30.2909H158.073C158.073 30.1099 158.073 29.8497 158.073 29.5103C158.073 29.1483 158.13 28.7636 158.243 28.3564C158.944 28.2432 159.476 28.0509 159.838 27.7794C160.2 27.4853 160.381 26.9988 160.381 26.32V10.5042C159.861 10.2554 159.069 10.1309 158.005 10.1309C157.983 9.97252 157.971 9.74626 157.971 9.45212C157.971 9.15798 158.028 8.75071 158.141 8.2303H168.119C168.142 8.41131 168.153 8.6602 168.153 8.97697C168.153 9.29374 168.085 9.67838 167.95 10.1309C167.248 10.244 166.716 10.4477 166.354 10.7418C165.992 11.0133 165.811 11.4885 165.811 12.1673V28.1867Z" fill="#C04B62"/>
<path d="M182.246 29.8158C181.929 30.1325 181.545 30.2909 181.092 30.2909C180.64 30.2909 180.255 30.1325 179.938 29.8158C179.622 29.4764 179.463 29.0804 179.463 28.6279C179.463 28.1527 179.622 27.7568 179.938 27.44C180.255 27.1232 180.64 26.9648 181.092 26.9648C181.545 26.9648 181.929 27.1232 182.246 27.44C182.586 27.7568 182.755 28.1527 182.755 28.6279C182.755 29.0804 182.586 29.4764 182.246 29.8158Z" fill="#472D30"/>
<path d="M186.15 10.4024C186.082 10.0857 186.048 9.85939 186.048 9.72364C186.048 9.58788 186.059 9.48606 186.082 9.41818H192.632C192.7 9.73495 192.734 10.063 192.734 10.4024C191.829 10.4929 191.286 10.6174 191.105 10.7758C190.947 10.9115 190.867 11.0812 190.867 11.2848C190.867 11.4885 190.924 11.7487 191.037 12.0655L195.755 24.623C196.049 25.4149 196.264 26.1164 196.4 26.7273H196.501L202.305 10.9115C201.558 10.5947 200.789 10.425 199.997 10.4024C199.997 10.0178 200.031 9.6897 200.099 9.41818H205.767C205.722 9.82545 205.665 10.1535 205.597 10.4024C204.964 10.4929 204.466 10.6513 204.104 10.8776C203.742 11.1038 203.448 11.5111 203.221 12.0994L196.4 30.3588H195.483L187.983 10.8097C187.258 10.5608 186.648 10.425 186.15 10.4024Z" fill="#472D30"/>
<path d="M211.771 11.9636V28.6618C212.427 28.956 213.185 29.1257 214.045 29.1709C214.045 29.2162 214.045 29.318 214.045 29.4764C214.045 29.6121 214.011 29.8384 213.943 30.1552H207.087C207.042 29.7931 207.076 29.4651 207.189 29.1709C208.004 29.0578 208.558 28.8994 208.852 28.6958C209.169 28.4695 209.327 28.0849 209.327 27.5418V10.9115C208.626 10.6174 207.845 10.4364 206.986 10.3685C206.986 9.93859 207.02 9.62182 207.087 9.41818H213.977C213.977 9.87071 213.943 10.1875 213.875 10.3685C213.106 10.459 212.563 10.6174 212.246 10.8436C211.93 11.0699 211.771 11.4432 211.771 11.9636Z" fill="#472D30"/>
<path d="M229.84 24.657C229.84 26.3992 229.184 27.802 227.872 28.8655C226.582 29.9289 224.953 30.4606 222.984 30.4606C221.016 30.4606 219.081 29.9855 217.181 29.0352C217.158 28.6731 217.147 28.0735 217.147 27.2364C217.147 26.3992 217.249 25.3358 217.452 24.0461C217.701 24.0461 217.995 24.08 218.335 24.1479C218.335 24.2158 218.335 24.2836 218.335 24.3515C218.335 27.5418 219.941 29.137 223.154 29.137C224.421 29.137 225.462 28.7863 226.277 28.0849C227.091 27.3608 227.498 26.4784 227.498 25.4376C227.498 24.3741 227.148 23.4804 226.446 22.7564C225.767 22.0097 224.942 21.3988 223.969 20.9236C222.996 20.4259 222.023 19.9281 221.05 19.4303C220.077 18.9099 219.24 18.2198 218.538 17.36C217.86 16.4776 217.52 15.4368 217.52 14.2376C217.52 12.6537 218.108 11.398 219.285 10.4703C220.484 9.54263 221.978 9.07879 223.765 9.07879C225.552 9.07879 227.34 9.41818 229.127 10.097C229.082 11.6808 228.958 13.0158 228.754 14.1018C228.392 14.1018 228.143 14.0792 228.007 14.0339C227.555 11.6129 226.084 10.4024 223.595 10.4024C222.396 10.4024 221.446 10.7079 220.744 11.3188C220.066 11.9071 219.726 12.699 219.726 13.6945C219.726 14.6901 220.066 15.5273 220.744 16.2061C221.446 16.8848 222.294 17.4618 223.29 17.937C224.285 18.3895 225.281 18.876 226.277 19.3964C227.272 19.8941 228.109 20.5842 228.788 21.4667C229.489 22.3491 229.84 23.4125 229.84 24.657Z" fill="#472D30"/>
<path d="M237.226 21.9418H243.878L240.484 11.5224L240.144 12.9818L237.226 21.9418ZM243.471 30.1552C243.471 29.7705 243.516 29.4424 243.606 29.1709C244.624 29.0125 245.416 28.7636 245.982 28.4242L244.251 23.1636H236.852L235.054 28.6279C235.755 28.9446 236.603 29.1257 237.599 29.1709C237.599 29.4198 237.554 29.7479 237.463 30.1552H231.218C231.218 29.861 231.264 29.5329 231.354 29.1709C232.101 29.0578 232.666 28.8541 233.051 28.56C233.436 28.2432 233.719 27.8246 233.9 27.3042L239.941 9.28242C240.484 9.07879 241.219 8.97697 242.147 8.97697L248.12 27.2703C248.324 27.9265 248.641 28.4016 249.071 28.6958C249.5 28.9673 250.111 29.1257 250.903 29.1709C250.858 29.6234 250.801 29.9515 250.734 30.1552H243.471Z" fill="#472D30"/>
<defs>
<linearGradient id="paint0_linear_132_9605" x1="-67.8669" y1="-119.262" x2="34.1336" y2="146.407" gradientUnits="userSpaceOnUse">
<stop offset="0.0275" stop-color="white"/>
<stop offset="0.3352" stop-color="#C04B62"/>
<stop offset="1" stop-color="#472D30"/>
</linearGradient>
<linearGradient id="paint1_linear_132_9605" x1="-95.4351" y1="-19.815" x2="-81.2692" y2="82.0966" gradientUnits="userSpaceOnUse">
<stop offset="0.0275" stop-color="white"/>
<stop offset="0.3352" stop-color="#C04B62"/>
<stop offset="1" stop-color="#472D30"/>
</linearGradient>
<linearGradient id="paint2_linear_132_9605" x1="306.033" y1="185.444" x2="102.81" y2="-180.783" gradientUnits="userSpaceOnUse">
<stop offset="0.0275" stop-color="white"/>
<stop offset="0.3352" stop-color="#C04B62"/>
<stop offset="1" stop-color="#472D30"/>
</linearGradient>
<linearGradient id="paint3_linear_132_9605" x1="352.681" y1="242.017" x2="-78.1438" y2="-266.673" gradientUnits="userSpaceOnUse">
<stop offset="0.0275" stop-color="white"/>
<stop offset="0.3352" stop-color="#C04B62"/>
<stop offset="1" stop-color="#472D30"/>
</linearGradient>
<linearGradient id="paint4_linear_132_9605" x1="275.269" y1="43.1773" x2="265.149" y2="-37.5209" gradientUnits="userSpaceOnUse">
<stop offset="0.0275" stop-color="white"/>
<stop offset="0.3352" stop-color="#C04B62"/>
<stop offset="1" stop-color="#472D30"/>
</linearGradient>
</defs>
</svg>
