<svg width="60" height="61" viewBox="0 0 60 61" fill="none" xmlns="http://www.w3.org/2000/svg">
<path opacity="0.3" d="M1 36.1421C1 30.1938 2.38053 23.9492 5.17193 17.4001C7.8586 11.0968 11.1311 5.70787 14.9816 1.2206L24.9199 5.77569C18.7257 13.7518 15.5174 21.1029 15.5174 27.8016C15.5174 34.6485 19.2888 40.1796 26.4745 44.4057V44.8606L17.5592 59.7707C12.0951 57.6574 8.03535 54.698 5.30744 50.9285C2.45512 46.9871 1 42.0789 1 36.1421ZM46.8766 1.22732L56.6716 5.77992C50.4654 14.0561 47.244 21.4635 47.244 27.9652C47.244 34.6261 51.1503 40.0955 58.5282 44.4071V44.8565L49.4566 59.7708C44.0426 57.6581 39.9915 54.6985 37.2359 50.925C34.3549 46.9799 32.834 42.0687 32.7265 36.133C32.728 30.1892 34.1077 24.005 36.8946 17.5726C39.6867 11.2655 43.0161 5.82051 46.8766 1.22732Z" stroke="#C04B62" stroke-width="2"/>
</svg>
